<?xml version="1.0" encoding="UTF-8"?><svg xmlns="http://www.w3.org/2000/svg" viewBox="0 0 484.16 417.26"><defs><style>.e{fill:#fff;}.f{fill:none;stroke:#231f20;stroke-miterlimit:10;stroke-width:10px;}.g{fill:#e8465e;}.h{fill:#231f20;}.i{fill:#010101;}</style></defs><g id="a"><path class="h" d="M118.42,291.74h13.87v10.18h-24.15v-32.83h24.15v10.22h-13.87v1.1h13.87v10.22h-13.87v1.1Z"/><path class="h" d="M202.05,301.91l-1.73-2.83h-14.83l-1.63,2.83h-11.81l20.88-36.2,20.88,36.2h-11.76Zm-7.58-13.06l-1.54-2.69-1.54,2.69h3.07Z"/><path class="h" d="M249.19,301.91h-10.18v-9.31l-7.63,10.23-7.39-10.13v9.22h-10.18v-35l17.62,20.21,17.76-20.11v34.9Z"/><path class="h" d="M291.09,279.21h-7.15v22.71h-10.18v-22.71h-7.15v-10.18h24.48v10.18Z"/><path class="h" d="M302.71,301.91h-10.18v-32.88h10.18v32.88Z"/><path class="h" d="M357.05,301.91h-11.62l-7.3-13.11c-1.34,2.54-2.74,5.09-4.13,7.63l-4.13,7.54-8.3-15.17-7.25,13.11h-11.62l18.96-34.23,8.21,15.07,8.16-15.07,19.01,34.23Z"/><rect class="e" x="118.41" y="277.58" width="13.89" height="1.72"/><rect class="e" x="118.41" y="289.41" width="13.89" height="1.72"/><path class="h" d="M369.31,291.74h13.87v10.18h-24.15v-32.83h24.15v10.22h-13.87v1.1h13.87v10.22h-13.87v1.1Z"/><rect class="e" x="369.3" y="277.58" width="13.89" height="1.72"/><rect class="e" x="369.3" y="289.41" width="13.89" height="1.72"/><polygon class="e" points="189.81 288.85 196.61 288.85 193.21 283.49 189.81 288.85"/><g><polygon class="g" points="133.43 287.27 140.17 286.46 151.74 296.35 187.98 268.75 157.52 301.99 147.05 302.35 133.43 287.27"/><polygon class="i" points="133.43 317.44 147.05 302.35 157.67 302.35 170.7 317 163.82 317.44 152.06 308.07 145.15 317.44 133.43 317.44"/></g><g><circle class="e" cx="233.03" cy="148.67" r="68.94"/><g><polygon class="g" points="180.57 102.24 206.88 102.99 235.07 125.48 292.33 81.87 357.88 31.95 254.67 144.58 219.2 145.82 180.57 102.24"/><polygon class="i" points="173.05 196.93 219.2 145.82 255.17 145.82 299.33 195.44 276.01 196.93 236.19 165.17 212.75 196.93 173.05 196.93"/></g><path class="i" d="M148.01,102.46l47.11-38.81s-5.68-8.55-10.66-10.4-6.57-3.51-16.47-2.43c0,0-8.62,2.55-9.26,4.34l-11.74,9.64s-5.81,5.04-6.7,10.4c0,0-2.68,3.96-.83,13.15s8.55,14.11,8.55,14.11Z"/><path class="i" d="M320.38,102.46l-47.11-38.81s5.68-8.55,10.66-10.4,6.57-3.51,16.47-2.43c0,0,8.62,2.55,9.26,4.34l11.74,9.64s5.81,5.04,6.7,10.4c0,0,2.68,3.96,.83,13.15-1.85,9.19-8.55,14.11-8.55,14.11Z"/><polygon class="i" points="239.67 59.22 239.67 50.48 239.67 49.99 245.67 49.99 245.67 38.88 222.69 38.88 222.69 49.93 228.82 49.93 228.82 59.22 239.67 59.22"/><circle class="f" cx="234.61" cy="148.17" r="82.97"/><path class="i" d="M192.51,227.78l-8.27,11.3c-1.49,2.03-4.44,2.41-6.59,.83s-2.68-4.5-1.19-6.53l8.27-11.3c1.49-2.03,4.44-2.41,6.59-.84s2.68,4.5,1.19,6.53Z"/><path class="i" d="M283.8,219.75l7.24,11.98c1.3,2.16,.51,5.02-1.76,6.4s-5.18,.75-6.49-1.41l-7.24-11.98c-1.3-2.16-.51-5.03,1.76-6.4s5.18-.75,6.49,1.41Z"/><path class="e" d="M293.92,80.66l11.01,9.07-2.36,2.57s-8.59-9.83-10.25-10.43l1.59-1.21Z"/><polygon class="e" points="219.15 145.82 254.67 144.58 256.28 147.06 218.07 147.06 219.15 145.82"/></g></g><g id="b"/><g id="c"/><g id="d"/></svg>